<svg xmlns="http://www.w3.org/2000/svg" width="27.977" height="19.584" viewBox="0 0 27.977 19.584"><defs><style>.a{fill:#fff;}</style></defs><g transform="translate(0 -72)"><g transform="translate(0 72)"><path class="a" d="M25.646,72H2.331A2.334,2.334,0,0,0,0,74.331V89.253a2.334,2.334,0,0,0,2.331,2.331H25.646a2.159,2.159,0,0,0,.39-.034,2.325,2.325,0,0,0,1.941-2.3V74.331A2.334,2.334,0,0,0,25.646,72ZM2.331,90.652A1.4,1.4,0,0,1,.938,89.376l9.3-6.079,9.454,7.354Zm24.713-1.4a1.4,1.4,0,0,1-1.17,1.379,1.268,1.268,0,0,1-.228.02H21.208L15.03,85.844l5.525-4.418,6.49,3.894Zm0-5.02L20.757,80.46a.466.466,0,0,0-.532.035l-5.953,4.761-3.728-2.9A.466.466,0,0,0,10,82.334L.933,88.265V74.331a1.4,1.4,0,0,1,1.4-1.4H25.646a1.4,1.4,0,0,1,1.4,1.4Z" transform="translate(0 -72)"/><path class="a" d="M194.8,120a2.8,2.8,0,1,0,2.8,2.8A2.8,2.8,0,0,0,194.8,120Zm0,4.663a1.865,1.865,0,1,1,1.865-1.865A1.865,1.865,0,0,1,194.8,124.663Z" transform="translate(-180.809 -117.202)"/></g></g></svg>