<svg xmlns="http://www.w3.org/2000/svg" width="263.86" height="263.86" viewBox="0 0 263.86 263.86"><defs><style>.a{fill:rgba(255,255,255,0.2);}</style></defs><path class="a" d="M186.042,108.156a77.882,77.882,0,0,0-68.561,41.056L90.575,135.033A46.858,46.858,0,0,0,87.81,95.04l41.8-30.419c23.7,19.942,60.1,2.95,60.1-28.017A36.638,36.638,0,0,0,153.126,0c-27.087,0-44.543,28.375-33,52.4L78.118,82.972C48.036,56.071,0,77.58,0,117.948a46.872,46.872,0,0,0,82.615,30.366l28.914,15.237C96.456,213.515,134.087,263.86,186.042,263.86a77.852,77.852,0,0,0,0-155.7Zm-32.917-92.7A21.143,21.143,0,1,1,132,36.6,21.161,21.161,0,0,1,153.125,15.461ZM46.9,149.4a31.456,31.456,0,1,1,31.436-31.455A31.481,31.481,0,0,1,46.9,149.4Zm139.145-25.788c50.342,0,79.468,56.658,51.486,97.55a57.016,57.016,0,0,0-20.179-23.513c15.652-24.56-2.053-57.023-31.307-57.023-29.024,0-46.737,31.983-31.619,56.537a56.672,56.672,0,0,0-20.474,23.094c-27.113-41.141,2.412-96.645,52.093-96.645Zm-21.651,54.14a21.651,21.651,0,1,1,21.651,21.665A21.682,21.682,0,0,1,164.391,177.756Zm-18.949,55.567a41.258,41.258,0,0,1,19.985-24.714,36.976,36.976,0,0,0,40.748.31,41.378,41.378,0,0,1,19.633,25.11,62.2,62.2,0,0,1-80.366-.707Z"/></svg>